<svg width="99" height="31" viewBox="0 0 99 31" fill="none" xmlns="http://www.w3.org/2000/svg">
<path d="M11.9961 0.0204316H1.421C1.05059 0.0204316 0.695364 0.169047 0.433451 0.433583C0.171537 0.698118 0.0243953 1.05691 0.0243953 1.43101V7.59076H19.4182C19.412 5.59768 18.6303 3.68695 17.2418 2.27072C15.8533 0.854494 13.9693 0.046285 11.9961 0.0204316V0.0204316ZM89.7605 11.3852H76.4349C76.8689 13.5271 78.0217 15.452 79.6985 16.8346C81.3752 18.2173 83.4731 18.973 85.6378 18.974H99C98.5636 16.8264 97.4052 14.8974 95.7211 13.5142C94.037 12.131 91.9311 11.3788 89.7605 11.3852V11.3852ZM13.9721 11.3852H0.00609999V18.9986H23.1811C22.7529 16.8506 21.6016 14.9186 19.9229 13.5307C18.2441 12.1428 16.1415 11.3847 13.9721 11.3852ZM97.5729 0.0204316H85.6256C83.4627 0.0231068 81.3671 0.779651 79.6926 2.16228C78.0181 3.54491 76.8674 5.46889 76.4349 7.60925H97.5851C97.7695 7.61169 97.9526 7.57721 98.1238 7.5078C98.2949 7.43839 98.4508 7.33543 98.5823 7.20485C98.7139 7.07428 98.8185 6.91868 98.8902 6.74703C98.9619 6.57539 98.9992 6.39111 99 6.20482V1.43101C98.9984 1.0574 98.8507 0.699558 98.5892 0.435373C98.3276 0.171188 97.9733 0.0220525 97.6034 0.0204316H97.5729ZM77.0447 24.2036V28.9713C77.0447 29.3454 77.1919 29.7042 77.4538 29.9687C77.7157 30.2332 78.0709 30.3818 78.4413 30.3818H89.7605C91.9311 30.3882 94.037 29.636 95.7211 28.2528C97.4052 26.8696 98.5636 24.9406 99 22.793H78.4413C78.0714 22.7946 77.7171 22.9438 77.4555 23.208C77.194 23.4722 77.0463 23.83 77.0447 24.2036V24.2036ZM0.00609999 28.9713C0.00525922 29.1583 0.0414174 29.3436 0.112454 29.5164C0.183491 29.6891 0.287976 29.8458 0.419773 29.9772C0.551571 30.1085 0.708027 30.212 0.87996 30.2815C1.05189 30.351 1.23584 30.3851 1.421 30.3818H13.9721C16.137 30.382 18.2355 29.6267 19.9125 28.2439C21.5895 26.861 22.742 24.9355 23.175 22.793H0L0.00609999 28.9713ZM44.5997 17.588V12.8204C44.6038 12.6329 44.5706 12.4464 44.5022 12.272C44.4337 12.0977 44.3314 11.9389 44.2012 11.8051C44.0711 11.6714 43.9157 11.5653 43.7442 11.4931C43.5728 11.421 43.3888 11.3843 43.2031 11.3852H27.0355V18.9986H43.1787C43.5491 18.9986 43.9043 18.85 44.1663 18.5855C44.4282 18.3209 44.5753 17.9621 44.5753 17.588H44.5997ZM46.8135 22.793H26.9379V28.9528C26.9379 29.3253 27.0844 29.6825 27.3452 29.9459C27.6059 30.2092 27.9596 30.3572 28.3284 30.3572H46.8379C47.2073 30.3572 47.5616 30.2094 47.8233 29.9462C48.0851 29.683 48.2329 29.3258 48.2345 28.9528V24.2036C48.2329 23.83 48.0853 23.4722 47.8237 23.208C47.5621 22.9438 47.2078 22.7946 46.8379 22.793H46.8135ZM46.8379 0.00195312C47.2078 0.00357402 47.5621 0.15271 47.8237 0.416895C48.0853 0.68108 48.2329 1.03893 48.2345 1.41254V6.18634C48.2329 6.55938 48.0851 6.91659 47.8233 7.17979C47.5616 7.443 47.2073 7.59077 46.8379 7.59076H26.9379V1.43101C26.9379 1.05797 27.0842 0.700113 27.3448 0.435754C27.6054 0.171394 27.9591 0.0220606 28.3284 0.0204316L46.8379 0.00195312Z" fill="white"/>
<path d="M69.6586 17.5861V12.8184C69.6619 12.6311 69.6281 12.4451 69.5594 12.2711C69.4907 12.0971 69.3883 11.9386 69.2583 11.805C69.1283 11.6714 68.9732 11.5653 68.8022 11.4929C68.6311 11.4205 68.4475 11.3832 68.262 11.3832H52.1188V18.9967H68.262C68.6319 18.995 68.9862 18.8459 69.2478 18.5817C69.5094 18.3175 69.657 17.9597 69.6586 17.5861V17.5861ZM71.8907 22.7911H51.9907V28.9508C51.9907 29.1358 52.0269 29.3189 52.0972 29.4897C52.1674 29.6605 52.2704 29.8156 52.4001 29.9461C52.5299 30.0766 52.6839 30.1799 52.8533 30.2501C53.0227 30.3203 53.2042 30.3561 53.3873 30.3552H71.8907C72.0739 30.3561 72.2553 30.3203 72.4247 30.2501C72.5941 30.1799 72.7482 30.0766 72.8779 29.9461C73.0077 29.8156 73.1107 29.6605 73.1809 29.4897C73.2512 29.3189 73.2873 29.1358 73.2873 28.9508V24.2016C73.2873 23.8275 73.1402 23.4688 72.8783 23.2042C72.6164 22.9397 72.2612 22.7911 71.8907 22.7911V22.7911ZM71.8907 0H53.3873C53.0169 0 52.6617 0.148615 52.3998 0.413151C52.1379 0.677686 51.9907 1.03647 51.9907 1.41058V7.57033H71.8907C72.0739 7.57114 72.2553 7.53541 72.4247 7.4652C72.5941 7.39498 72.7482 7.29166 72.8779 7.16117C73.0077 7.03068 73.1107 6.87558 73.1809 6.70478C73.2512 6.53399 73.2873 6.35086 73.2873 6.16591V1.42906C73.2873 1.05495 73.1402 0.696165 72.8783 0.431629C72.6164 0.167094 72.2612 0.0184785 71.8907 0.0184785" fill="white"/>
</svg>
